<svg width="20" height="20" viewBox="0 0 20 20" fill="none" xmlns="http://www.w3.org/2000/svg">
<path d="M7.38101 4.19021H14.4563V3.19083C14.4563 2.6858 14.2494 2.22684 13.9158 1.89335C13.5822 1.55974 13.1232 1.35294 12.619 1.35294H3.19083C2.6858 1.35294 2.22684 1.55975 1.89335 1.89335C1.55974 2.22696 1.35294 2.68595 1.35294 3.19083V12.619C1.35294 13.1233 1.55975 13.583 1.89335 13.9158C2.22696 14.2495 2.68595 14.4563 3.19083 14.4563H4.19021V7.38101C4.19021 6.50278 4.54924 5.70516 5.12692 5.12689C5.70461 4.54861 6.50267 4.19017 7.38104 4.19017L7.38101 4.19021ZM15.8098 4.19021H16.8092C17.6874 4.19021 18.485 4.54924 19.0633 5.12692C19.641 5.7046 20 6.50267 20 7.38104V16.8092C20 17.6874 19.641 18.485 19.0633 19.0633C18.485 19.6416 17.6875 20 16.8092 20H7.38104C6.50282 20 5.7052 19.641 5.12692 19.0633C4.54865 18.4856 4.19021 17.6875 4.19021 16.8092V15.8098H3.19083C2.31261 15.8098 1.51498 15.4508 0.936712 14.8731C0.359031 14.2954 0 13.4973 0 12.619V3.19083C0 2.31261 0.359028 1.51498 0.936712 0.936712C1.51498 0.359031 2.31246 0 3.19083 0H12.619C13.4972 0 14.2948 0.359027 14.8731 0.936712C15.4513 1.51498 15.8098 2.31246 15.8098 3.19083V4.19021ZM16.8092 5.5437H7.38104C6.87672 5.5437 6.41705 5.75052 6.08415 6.08412C5.75055 6.41773 5.54374 6.87671 5.54374 7.3816V16.8097C5.54374 17.3141 5.75055 17.7737 6.08415 18.1072C6.41776 18.4408 6.87675 18.6476 7.38104 18.6476H16.8092C17.3142 18.6476 17.7732 18.4408 18.1066 18.1072C18.4403 17.7736 18.6471 17.3146 18.6471 16.8097V7.3816C18.6471 6.87727 18.4403 6.4176 18.1066 6.08412C17.773 5.75051 17.3141 5.5437 16.8092 5.5437Z" fill="#2D3740" fill-opacity="0.8"/>
</svg>
