<svg width="44" height="44" viewBox="0 0 44 44" fill="none" xmlns="http://www.w3.org/2000/svg">
<circle cx="22" cy="22" r="22" fill="white"/>
<path d="M32 15.0364C31.2475 15.3844 30.4516 15.6156 29.637 15.723C30.4955 15.1826 31.1374 14.327 31.4408 13.3182C30.637 13.8237 29.7576 14.1797 28.8407 14.3707C28.2776 13.7356 27.5477 13.2945 26.7456 13.1046C25.9434 12.9146 25.1059 12.9846 24.3417 13.3054C23.5774 13.6262 22.9216 14.183 22.4593 14.9037C21.9969 15.6245 21.7493 16.4759 21.7485 17.3476C21.7455 17.6808 21.7777 18.0133 21.8442 18.3389C20.2128 18.254 18.6167 17.8048 17.1602 17.0208C15.7037 16.2367 14.4196 15.1354 13.392 13.7888C12.8639 14.7459 12.7001 15.8807 12.9343 16.9615C13.1684 18.0423 13.7827 18.9875 14.6518 19.6041C14.0028 19.5858 13.3674 19.4023 12.7993 19.069V19.1173C12.8004 20.1216 13.1277 21.0948 13.7261 21.873C14.3245 22.6513 15.1575 23.1871 16.0848 23.3901C15.7342 23.4882 15.3729 23.5364 15.0104 23.5336C14.7498 23.5386 14.4895 23.5137 14.2339 23.4594C14.4988 24.3226 15.0094 25.0774 15.6955 25.6201C16.3815 26.1627 17.2093 26.4665 18.0649 26.4896C16.6129 27.6911 14.8233 28.342 12.9817 28.3383C12.6536 28.3406 12.3257 28.3207 12 28.2786C13.8749 29.5597 16.0595 30.2376 18.2898 30.2305C19.8251 30.2418 21.3472 29.9295 22.7677 29.3116C24.1883 28.6938 25.4789 27.7827 26.5646 26.6313C27.6503 25.4799 28.5095 24.1112 29.0922 22.6046C29.675 21.0981 29.9696 19.4837 29.9591 17.8553C29.9591 17.6635 29.9591 17.4782 29.9439 17.2928C30.7529 16.6795 31.4497 15.9148 32 15.0364Z" fill="#000"/>
</svg>
